solid OpenSCAD_Model
  facet normal 0 0 -1
    outer loop
      vertex -21 20 -7
      vertex -20.2352 27.2769 -7
      vertex -20.2352 12.7231 -7
    endloop
  endfacet
  facet normal 0 0 -1
    outer loop
      vertex -20.2352 12.7231 -7
      vertex -20.2352 27.2769 -7
      vertex -17.9741 34.2358 -7
    endloop
  endfacet
  facet normal 0 0 -1
    outer loop
      vertex -20.2352 12.7231 -7
      vertex -17.9741 34.2358 -7
      vertex -14.3156 40.5725 -7
    endloop
  endfacet
  facet normal 0 0 -1
    outer loop
      vertex -20.2352 12.7231 -7
      vertex -14.3156 40.5725 -7
      vertex -9.41957 46.0101 -7
    endloop
  endfacet
  facet normal 0 0 -1
    outer loop
      vertex -20.2352 12.7231 -7
      vertex -9.41957 46.0101 -7
      vertex -3.5 50.3109 -7
    endloop
  endfacet
  facet normal 0 0 -1
    outer loop
      vertex -1.80194 46.8678 -7
      vertex -3.5 50.3109 -7
      vertex 3.1844 53.287 -7
    endloop
  endfacet
  facet normal 0 0 -1
    outer loop
      vertex 1.24698 47.5637 -7
      vertex 3.1844 53.287 -7
      vertex 10.3415 54.8083 -7
    endloop
  endfacet
  facet normal 0 0 -1
    outer loop
      vertex -1.35887 33.9288 -7
      vertex 10.3415 54.8083 -7
      vertex 17.6585 54.8083 -7
    endloop
  endfacet
  facet normal 0 0 -1
    outer loop
      vertex 1.35887 33.9288 -7
      vertex 17.6585 54.8083 -7
      vertex 24.8156 53.287 -7
    endloop
  endfacet
  facet normal 0 0 -1
    outer loop
      vertex 6.5 32.2583 -7
      vertex 24.8156 53.287 -7
      vertex 31.5 50.3109 -7
    endloop
  endfacet
  facet normal 0 0 -1
    outer loop
      vertex 8.6987 30.6609 -7
      vertex 31.5 50.3109 -7
      vertex 37.4196 46.0101 -7
    endloop
  endfacet
  facet normal 0 0 -1
    outer loop
      vertex 10.5172 28.6412 -7
      vertex 37.4196 46.0101 -7
      vertex 42.3156 40.5725 -7
    endloop
  endfacet
  facet normal 0 0 -1
    outer loop
      vertex 12.7159 23.7029 -7
      vertex 42.3156 40.5725 -7
      vertex 45.9741 34.2358 -7
    endloop
  endfacet
  facet normal 0 0 -1
    outer loop
      vertex 13 21 -7
      vertex 45.9741 34.2358 -7
      vertex 48.2352 27.2769 -7
    endloop
  endfacet
  facet normal 0 0 -1
    outer loop
      vertex 12.7159 18.2971 -7
      vertex 48.2352 27.2769 -7
      vertex 49 20 -7
    endloop
  endfacet
  facet normal 0 0 -1
    outer loop
      vertex 10.5172 13.3588 -7
      vertex 49 20 -7
      vertex 48.2352 12.7231 -7
    endloop
  endfacet
  facet normal 0 0 -1
    outer loop
      vertex 8.6987 11.3391 -7
      vertex 48.2352 12.7231 -7
      vertex 45.9741 5.76422 -7
    endloop
  endfacet
  facet normal 0 0 -1
    outer loop
      vertex 4.01722 8.63626 -7
      vertex 45.9741 5.76422 -7
      vertex 42.3156 -0.572484 -7
    endloop
  endfacet
  facet normal 0 0 -1
    outer loop
      vertex -1.35887 8.07122 -7
      vertex 42.3156 -0.572484 -7
      vertex 37.4196 -6.01007 -7
    endloop
  endfacet
  facet normal 0 0 -1
    outer loop
      vertex -20.2352 12.7231 -7
      vertex 37.4196 -6.01007 -7
      vertex 31.5 -10.3109 -7
    endloop
  endfacet
  facet normal 0 0 -1
    outer loop
      vertex -20.2352 12.7231 -7
      vertex 31.5 -10.3109 -7
      vertex 24.8156 -13.287 -7
    endloop
  endfacet
  facet normal 0 0 -1
    outer loop
      vertex -20.2352 12.7231 -7
      vertex 24.8156 -13.287 -7
      vertex 17.6585 -14.8083 -7
    endloop
  endfacet
  facet normal 0 0 -1
    outer loop
      vertex -20.2352 12.7231 -7
      vertex 17.6585 -14.8083 -7
      vertex 10.3415 -14.8083 -7
    endloop
  endfacet
  facet normal 0 0 -1
    outer loop
      vertex -20.2352 12.7231 -7
      vertex 10.3415 -14.8083 -7
      vertex 3.1844 -13.287 -7
    endloop
  endfacet
  facet normal 0 0 -1
    outer loop
      vertex -20.2352 12.7231 -7
      vertex 3.1844 -13.287 -7
      vertex -3.5 -10.3109 -7
    endloop
  endfacet
  facet normal 0 0 -1
    outer loop
      vertex -20.2352 12.7231 -7
      vertex -3.5 -10.3109 -7
      vertex -9.41957 -6.01007 -7
    endloop
  endfacet
  facet normal 0 0 -1
    outer loop
      vertex -20.2352 12.7231 -7
      vertex -9.41957 -6.01007 -7
      vertex -14.3156 -0.572484 -7
    endloop
  endfacet
  facet normal 0 0 -1
    outer loop
      vertex -20.2352 12.7231 -7
      vertex -14.3156 -0.572484 -7
      vertex -17.9741 5.76422 -7
    endloop
  endfacet
  facet normal 0 0 -1
    outer loop
      vertex -12.7159 18.2971 -7
      vertex -20.2352 12.7231 -7
      vertex -13 21 -7
    endloop
  endfacet
  facet normal 0 0 -1
    outer loop
      vertex -11.8761 15.7124 -7
      vertex -20.2352 12.7231 -7
      vertex -12.7159 18.2971 -7
    endloop
  endfacet
  facet normal 0 0 -1
    outer loop
      vertex -10.5172 13.3588 -7
      vertex -20.2352 12.7231 -7
      vertex -11.8761 15.7124 -7
    endloop
  endfacet
  facet normal 0 0 -1
    outer loop
      vertex -8.6987 11.3391 -7
      vertex -20.2352 12.7231 -7
      vertex -10.5172 13.3588 -7
    endloop
  endfacet
  facet normal 0 0 -1
    outer loop
      vertex -0.445042 44.0501 -7
      vertex -10.5172 28.6412 -7
      vertex -1.80194 45.1322 -7
    endloop
  endfacet
  facet normal 0 0 -1
    outer loop
      vertex -6.5 9.74167 -7
      vertex -20.2352 12.7231 -7
      vertex -8.6987 11.3391 -7
    endloop
  endfacet
  facet normal 0 0 -1
    outer loop
      vertex -1.35887 8.07122 -7
      vertex 37.4196 -6.01007 -7
      vertex -4.01722 8.63626 -7
    endloop
  endfacet
  facet normal 0 0 -1
    outer loop
      vertex -20.2352 12.7231 -7
      vertex -6.5 9.74167 -7
      vertex -4.01722 8.63626 -7
    endloop
  endfacet
  facet normal 0 0 -1
    outer loop
      vertex -20.2352 12.7231 -7
      vertex -4.01722 8.63626 -7
      vertex 37.4196 -6.01007 -7
    endloop
  endfacet
  facet normal 0 0 -1
    outer loop
      vertex 1.35887 8.07122 -7
      vertex 42.3156 -0.572484 -7
      vertex -1.35887 8.07122 -7
    endloop
  endfacet
  facet normal 0 0 -1
    outer loop
      vertex 4.01722 8.63626 -7
      vertex 42.3156 -0.572484 -7
      vertex 1.35887 8.07122 -7
    endloop
  endfacet
  facet normal 0 0 -1
    outer loop
      vertex 6.5 9.74167 -7
      vertex 45.9741 5.76422 -7
      vertex 4.01722 8.63626 -7
    endloop
  endfacet
  facet normal 0 0 -1
    outer loop
      vertex 8.6987 11.3391 -7
      vertex 45.9741 5.76422 -7
      vertex 6.5 9.74167 -7
    endloop
  endfacet
  facet normal 0 0 -1
    outer loop
      vertex 11.8761 15.7124 -7
      vertex 49 20 -7
      vertex 10.5172 13.3588 -7
    endloop
  endfacet
  facet normal 0 0 -1
    outer loop
      vertex 12.7159 18.2971 -7
      vertex 49 20 -7
      vertex 11.8761 15.7124 -7
    endloop
  endfacet
  facet normal 0 0 -1
    outer loop
      vertex 10.5172 13.3588 -7
      vertex 48.2352 12.7231 -7
      vertex 8.6987 11.3391 -7
    endloop
  endfacet
  facet normal 0 0 -1
    outer loop
      vertex 11.8761 26.2876 -7
      vertex 42.3156 40.5725 -7
      vertex 12.7159 23.7029 -7
    endloop
  endfacet
  facet normal 0 0 -1
    outer loop
      vertex 10.5172 28.6412 -7
      vertex 42.3156 40.5725 -7
      vertex 11.8761 26.2876 -7
    endloop
  endfacet
  facet normal 0 0 -1
    outer loop
      vertex 12.7159 23.7029 -7
      vertex 45.9741 34.2358 -7
      vertex 13 21 -7
    endloop
  endfacet
  facet normal 0 0 -1
    outer loop
      vertex 13 21 -7
      vertex 48.2352 27.2769 -7
      vertex 12.7159 18.2971 -7
    endloop
  endfacet
  facet normal 0 0 -1
    outer loop
      vertex 4.01722 33.3637 -7
      vertex 24.8156 53.287 -7
      vertex 6.5 32.2583 -7
    endloop
  endfacet
  facet normal 0 0 -1
    outer loop
      vertex 1.35887 33.9288 -7
      vertex 24.8156 53.287 -7
      vertex 4.01722 33.3637 -7
    endloop
  endfacet
  facet normal 0 0 -1
    outer loop
      vertex 6.5 32.2583 -7
      vertex 31.5 50.3109 -7
      vertex 8.6987 30.6609 -7
    endloop
  endfacet
  facet normal 0 0 -1
    outer loop
      vertex -4.01722 33.3637 -7
      vertex 10.3415 54.8083 -7
      vertex -1.35887 33.9288 -7
    endloop
  endfacet
  facet normal 0 0 -1
    outer loop
      vertex -6.5 32.2583 -7
      vertex 10.3415 54.8083 -7
      vertex -4.01722 33.3637 -7
    endloop
  endfacet
  facet normal 0 0 -1
    outer loop
      vertex -10.5172 28.6412 -7
      vertex -20.2352 12.7231 -7
      vertex -1.80194 45.1322 -7
    endloop
  endfacet
  facet normal 0 0 -1
    outer loop
      vertex -20.2352 12.7231 -7
      vertex -10.5172 28.6412 -7
      vertex -11.8761 26.2876 -7
    endloop
  endfacet
  facet normal 0 0 -1
    outer loop
      vertex -0.445042 44.0501 -7
      vertex -8.6987 30.6609 -7
      vertex -10.5172 28.6412 -7
    endloop
  endfacet
  facet normal 0 0 -1
    outer loop
      vertex -0.445042 44.0501 -7
      vertex -6.5 32.2583 -7
      vertex -8.6987 30.6609 -7
    endloop
  endfacet
  facet normal 0 0 -1
    outer loop
      vertex -1.35887 33.9288 -7
      vertex 17.6585 54.8083 -7
      vertex 1.35887 33.9288 -7
    endloop
  endfacet
  facet normal 0 0 -1
    outer loop
      vertex -20.2352 12.7231 -7
      vertex -3.5 50.3109 -7
      vertex -1.80194 46.8678 -7
    endloop
  endfacet
  facet normal 0 0 -1
    outer loop
      vertex -0.445042 47.9499 -7
      vertex -1.80194 46.8678 -7
      vertex 3.1844 53.287 -7
    endloop
  endfacet
  facet normal 0 0 -1
    outer loop
      vertex -20.2352 12.7231 -7
      vertex -1.80194 46.8678 -7
      vertex -1.80194 45.1322 -7
    endloop
  endfacet
  facet normal 0 0 -1
    outer loop
      vertex 1.24698 47.5637 -7
      vertex 10.3415 54.8083 -7
      vertex 2 46 -7
    endloop
  endfacet
  facet normal 0 0 -1
    outer loop
      vertex -6.5 32.2583 -7
      vertex -0.445042 44.0501 -7
      vertex 1.24698 44.4363 -7
    endloop
  endfacet
  facet normal 0 0 -1
    outer loop
      vertex -6.5 32.2583 -7
      vertex 1.24698 44.4363 -7
      vertex 10.3415 54.8083 -7
    endloop
  endfacet
  facet normal 0 0 -1
    outer loop
      vertex 1.24698 44.4363 -7
      vertex 2 46 -7
      vertex 10.3415 54.8083 -7
    endloop
  endfacet
  facet normal 0 0 -1
    outer loop
      vertex -0.445042 47.9499 -7
      vertex 3.1844 53.287 -7
      vertex 1.24698 47.5637 -7
    endloop
  endfacet
  facet normal 0 0 -1
    outer loop
      vertex -13 21 -7
      vertex -20.2352 12.7231 -7
      vertex -12.7159 23.7029 -7
    endloop
  endfacet
  facet normal 0 0 -1
    outer loop
      vertex -12.7159 23.7029 -7
      vertex -20.2352 12.7231 -7
      vertex -11.8761 26.2876 -7
    endloop
  endfacet
  facet normal 0 0 -1
    outer loop
      vertex 8.6987 30.6609 -7
      vertex 37.4196 46.0101 -7
      vertex 10.5172 28.6412 -7
    endloop
  endfacet
  facet normal -0.994522 0.104528 0
    outer loop
      vertex -21 20 -7
      vertex -21 20 -3.5
      vertex -20.2352 27.2769 -7
    endloop
  endfacet
  facet normal -0.994522 0.104528 0
    outer loop
      vertex -20.2352 27.2769 -7
      vertex -21 20 -3.5
      vertex -20.2352 27.2769 -3.5
    endloop
  endfacet
  facet normal -0.994522 -0.104528 0
    outer loop
      vertex -21 20 -7
      vertex -20.2352 12.7231 -7
      vertex -21 20 -3.5
    endloop
  endfacet
  facet normal -0.994522 -0.104528 0
    outer loop
      vertex -21 20 -3.5
      vertex -20.2352 12.7231 -7
      vertex -20.2352 12.7231 -3.5
    endloop
  endfacet
  facet normal -0.951057 -0.309017 0
    outer loop
      vertex -20.2352 12.7231 -7
      vertex -17.9741 5.76422 -7
      vertex -20.2352 12.7231 -3.5
    endloop
  endfacet
  facet normal -0.951057 -0.309017 0
    outer loop
      vertex -20.2352 12.7231 -3.5
      vertex -17.9741 5.76422 -7
      vertex -17.9741 5.76422 -3.5
    endloop
  endfacet
  facet normal -0.866025 -0.5 0
    outer loop
      vertex -17.9741 5.76422 -7
      vertex -14.3156 -0.572484 -7
      vertex -17.9741 5.76422 -3.5
    endloop
  endfacet
  facet normal -0.866025 -0.5 0
    outer loop
      vertex -17.9741 5.76422 -3.5
      vertex -14.3156 -0.572484 -7
      vertex -14.3156 -0.572484 -3.5
    endloop
  endfacet
  facet normal -0.743145 -0.669131 0
    outer loop
      vertex -14.3156 -0.572484 -7
      vertex -9.41957 -6.01007 -7
      vertex -14.3156 -0.572484 -3.5
    endloop
  endfacet
  facet normal -0.743145 -0.669131 0
    outer loop
      vertex -14.3156 -0.572484 -3.5
      vertex -9.41957 -6.01007 -7
      vertex -9.41957 -6.01007 -3.5
    endloop
  endfacet
  facet normal -0.587785 -0.809017 0
    outer loop
      vertex -9.41957 -6.01007 -3.5
      vertex -9.41957 -6.01007 -7
      vertex -3.5 -10.3109 -7
    endloop
  endfacet
  facet normal -0.587785 -0.809017 0
    outer loop
      vertex -3.5 -10.3109 -3.5
      vertex -9.41957 -6.01007 -3.5
      vertex -3.5 -10.3109 -7
    endloop
  endfacet
  facet normal -0.406737 -0.913545 0
    outer loop
      vertex -3.5 -10.3109 -3.5
      vertex -3.5 -10.3109 -7
      vertex 3.1844 -13.287 -7
    endloop
  endfacet
  facet normal -0.406737 -0.913545 0
    outer loop
      vertex 3.1844 -13.287 -3.5
      vertex -3.5 -10.3109 -3.5
      vertex 3.1844 -13.287 -7
    endloop
  endfacet
  facet normal -0.207912 -0.978148 0
    outer loop
      vertex 3.1844 -13.287 -3.5
      vertex 3.1844 -13.287 -7
      vertex 10.3415 -14.8083 -7
    endloop
  endfacet
  facet normal -0.207912 -0.978148 0
    outer loop
      vertex 10.3415 -14.8083 -3.5
      vertex 3.1844 -13.287 -3.5
      vertex 10.3415 -14.8083 -7
    endloop
  endfacet
  facet normal 0 -1 0
    outer loop
      vertex 10.3415 -14.8083 -3.5
      vertex 10.3415 -14.8083 -7
      vertex 17.6585 -14.8083 -7
    endloop
  endfacet
  facet normal 0 -1 0
    outer loop
      vertex 14 -14.8083 -3.5
      vertex 10.3415 -14.8083 -3.5
      vertex 17.6585 -14.8083 -7
    endloop
  endfacet
  facet normal 0 -1 0
    outer loop
      vertex 17.6585 -14.8083 7
      vertex 14 -14.8083 -3.5
      vertex 17.6585 -14.8083 -7
    endloop
  endfacet
  facet normal 0 -1 0
    outer loop
      vertex 14 -14.8083 7
      vertex 14 -14.8083 -3.5
      vertex 17.6585 -14.8083 7
    endloop
  endfacet
  facet normal 0.207912 -0.978148 0
    outer loop
      vertex 17.6585 -14.8083 7
      vertex 17.6585 -14.8083 -7
      vertex 24.8156 -13.287 -7
    endloop
  endfacet
  facet normal 0.207912 -0.978148 0
    outer loop
      vertex 24.8156 -13.287 7
      vertex 17.6585 -14.8083 7
      vertex 24.8156 -13.287 -7
    endloop
  endfacet
  facet normal 0.406737 -0.913545 0
    outer loop
      vertex 24.8156 -13.287 7
      vertex 24.8156 -13.287 -7
      vertex 31.5 -10.3109 -7
    endloop
  endfacet
  facet normal 0.406737 -0.913545 0
    outer loop
      vertex 31.5 -10.3109 7
      vertex 24.8156 -13.287 7
      vertex 31.5 -10.3109 -7
    endloop
  endfacet
  facet normal 0.587785 -0.809017 0
    outer loop
      vertex 31.5 -10.3109 7
      vertex 31.5 -10.3109 -7
      vertex 37.4196 -6.01007 -7
    endloop
  endfacet
  facet normal 0.587785 -0.809017 0
    outer loop
      vertex 37.4196 -6.01007 7
      vertex 31.5 -10.3109 7
      vertex 37.4196 -6.01007 -7
    endloop
  endfacet
  facet normal 0.743145 -0.669131 0
    outer loop
      vertex 37.4196 -6.01007 7
      vertex 37.4196 -6.01007 -7
      vertex 42.3156 -0.572484 -7
    endloop
  endfacet
  facet normal 0.743145 -0.669131 0
    outer loop
      vertex 42.3156 -0.572484 7
      vertex 37.4196 -6.01007 7
      vertex 42.3156 -0.572484 -7
    endloop
  endfacet
  facet normal 0.866025 -0.5 0
    outer loop
      vertex 43.5969 1.64683 2.07295
      vertex 42.3156 -0.572484 -7
      vertex 45.9741 5.76422 -7
    endloop
  endfacet
  facet normal 0.866025 -0.5 0
    outer loop
      vertex 43.5969 1.64683 2.07295
      vertex 43.5969 1.64683 3.92705
      vertex 42.3156 -0.572484 7
    endloop
  endfacet
  facet normal 0.866025 -0.5 0
    outer loop
      vertex 45.9741 5.76422 0.410769
      vertex 45.2442 4.5 5.60534e-15
      vertex 45.9741 5.76422 -7
    endloop
  endfacet
  facet normal 0.866025 -0.5 0
    outer loop
      vertex 45.2442 4.5 5.60534e-15
      vertex 44.2261 2.73664 0.572949
      vertex 45.9741 5.76422 -7
    endloop
  endfacet
  facet normal 0.866025 -0.5 0
    outer loop
      vertex 42.3156 -0.572484 7
      vertex 42.3156 -0.572484 -7
      vertex 43.5969 1.64683 2.07295
    endloop
  endfacet
  facet normal 0.866025 -0.5 0
    outer loop
      vertex 45.2442 4.5 6
      vertex 42.3156 -0.572484 7
      vertex 44.2261 2.73664 5.42705
    endloop
  endfacet
  facet normal 0.866025 -0.5 0
    outer loop
      vertex 45.9741 5.76422 7
      vertex 42.3156 -0.572484 7
      vertex 45.2442 4.5 6
    endloop
  endfacet
  facet normal 0.866025 -0.5 0
    outer loop
      vertex 45.9741 5.76422 7
      vertex 45.2442 4.5 6
      vertex 45.9741 5.76422 5.58923
    endloop
  endfacet
  facet normal 0.866025 -0.5 0
    outer loop
      vertex 44.2261 2.73664 0.572949
      vertex 43.5969 1.64683 2.07295
      vertex 45.9741 5.76422 -7
    endloop
  endfacet
  facet normal 0.866025 -0.5 0
    outer loop
      vertex 43.5969 1.64683 3.92705
      vertex 44.2261 2.73664 5.42705
      vertex 42.3156 -0.572484 7
    endloop
  endfacet
  facet normal 0.951057 -0.309017 0
    outer loop
      vertex 45.9741 5.76422 0.410769
      vertex 45.9741 5.76422 -7
      vertex 48.2352 12.7231 -7
    endloop
  endfacet
  facet normal 0.951057 -0.309017 0
    outer loop
      vertex 46.1363 6.26336 0.572949
      vertex 45.9741 5.76422 0.410769
      vertex 48.2352 12.7231 -7
    endloop
  endfacet
  facet normal 0.951057 -0.309017 0
    outer loop
      vertex 45.9741 5.76422 7
      vertex 45.9741 5.76422 5.58923
      vertex 48.2352 12.7231 7
    endloop
  endfacet
  facet normal 0.951057 -0.309017 0
    outer loop
      vertex 45.9741 5.76422 5.58923
      vertex 46.1363 6.26336 5.42705
      vertex 48.2352 12.7231 7
    endloop
  endfacet
  facet normal 0.951057 -0.309017 0
    outer loop
      vertex 46.1363 6.26336 5.42705
      vertex 46.4904 7.35317 3.92705
      vertex 48.2352 12.7231 7
    endloop
  endfacet
  facet normal 0.951057 -0.309017 0
    outer loop
      vertex 46.4904 7.35317 3.92705
      vertex 46.4904 7.35317 2.07295
      vertex 48.2352 12.7231 7
    endloop
  endfacet
  facet normal 0.951057 -0.309017 0
    outer loop
      vertex 48.2352 12.7231 7
      vertex 46.1363 6.26336 0.572949
      vertex 48.2352 12.7231 -7
    endloop
  endfacet
  facet normal 0.951057 -0.309017 0
    outer loop
      vertex 46.4904 7.35317 2.07295
      vertex 46.1363 6.26336 0.572949
      vertex 48.2352 12.7231 7
    endloop
  endfacet
  facet normal 0.994522 -0.104528 0
    outer loop
      vertex 48.2352 12.7231 7
      vertex 48.2352 12.7231 -7
      vertex 49 20 -7
    endloop
  endfacet
  facet normal 0.994522 -0.104528 0
    outer loop
      vertex 49 20 7
      vertex 48.2352 12.7231 7
      vertex 49 20 -7
    endloop
  endfacet
  facet normal 0.994522 0.104528 0
    outer loop
      vertex 49 20 -7
      vertex 48.2352 27.2769 -7
      vertex 48.2352 27.2769 7
    endloop
  endfacet
  facet normal 0.994522 0.104528 0
    outer loop
      vertex 49 20 7
      vertex 49 20 -7
      vertex 48.2352 27.2769 7
    endloop
  endfacet
  facet normal 0.951057 0.309017 0
    outer loop
      vertex 48.2352 27.2769 -7
      vertex 45.9741 34.2358 -7
      vertex 45.9741 34.2358 0.0766105
    endloop
  endfacet
  facet normal 0.951057 0.309017 0
    outer loop
      vertex 46.6237 32.2366 0.572949
      vertex 48.2352 27.2769 -7
      vertex 46.0507 34 5.78442e-15
    endloop
  endfacet
  facet normal 0.951057 0.309017 0
    outer loop
      vertex 46.0507 34 5.78442e-15
      vertex 48.2352 27.2769 -7
      vertex 45.9741 34.2358 0.0766105
    endloop
  endfacet
  facet normal 0.951057 0.309017 0
    outer loop
      vertex 46.9778 31.1468 2.07295
      vertex 48.2352 27.2769 -7
      vertex 46.6237 32.2366 0.572949
    endloop
  endfacet
  facet normal 0.951057 0.309017 0
    outer loop
      vertex 46.9778 31.1468 3.92705
      vertex 48.2352 27.2769 -7
      vertex 46.9778 31.1468 2.07295
    endloop
  endfacet
  facet normal 0.951057 0.309017 0
    outer loop
      vertex 48.2352 27.2769 7
      vertex 48.2352 27.2769 -7
      vertex 46.9778 31.1468 3.92705
    endloop
  endfacet
  facet normal 0.951057 0.309017 0
    outer loop
      vertex 48.2352 27.2769 7
      vertex 46.9778 31.1468 3.92705
      vertex 46.6237 32.2366 5.42705
    endloop
  endfacet
  facet normal 0.951057 0.309017 0
    outer loop
      vertex 45.9741 34.2358 7
      vertex 46.6237 32.2366 5.42705
      vertex 46.0507 34 6
    endloop
  endfacet
  facet normal 0.951057 0.309017 0
    outer loop
      vertex 45.9741 34.2358 7
      vertex 46.0507 34 6
      vertex 45.9741 34.2358 5.92339
    endloop
  endfacet
  facet normal 0.951057 0.309017 0
    outer loop
      vertex 48.2352 27.2769 7
      vertex 46.6237 32.2366 5.42705
      vertex 45.9741 34.2358 7
    endloop
  endfacet
  facet normal 0.866025 0.5 0
    outer loop
      vertex 45.9741 34.2358 -7
      vertex 42.3156 40.5725 -7
      vertex 42.3156 40.5725 7
    endloop
  endfacet
  facet normal 0.866025 0.5 0
    outer loop
      vertex 44.4629 36.8532 2.07295
      vertex 45.9741 34.2358 -7
      vertex 42.3156 40.5725 7
    endloop
  endfacet
  facet normal 0.866025 0.5 0
    outer loop
      vertex 45.9741 34.2358 7
      vertex 45.9741 34.2358 5.92339
      vertex 42.3156 40.5725 7
    endloop
  endfacet
  facet normal 0.866025 0.5 0
    outer loop
      vertex 45.9741 34.2358 5.92339
      vertex 45.0921 35.7634 5.42705
      vertex 42.3156 40.5725 7
    endloop
  endfacet
  facet normal 0.866025 0.5 0
    outer loop
      vertex 45.0921 35.7634 5.42705
      vertex 44.4629 36.8532 3.92705
      vertex 42.3156 40.5725 7
    endloop
  endfacet
  facet normal 0.866025 0.5 0
    outer loop
      vertex 44.4629 36.8532 3.92705
      vertex 44.4629 36.8532 2.07295
      vertex 42.3156 40.5725 7
    endloop
  endfacet
  facet normal 0.866025 0.5 0
    outer loop
      vertex 45.0921 35.7634 0.572949
      vertex 45.9741 34.2358 0.0766105
      vertex 45.9741 34.2358 -7
    endloop
  endfacet
  facet normal 0.866025 0.5 0
    outer loop
      vertex 44.4629 36.8532 2.07295
      vertex 45.0921 35.7634 0.572949
      vertex 45.9741 34.2358 -7
    endloop
  endfacet
  facet normal 0.743145 0.669131 0
    outer loop
      vertex 42.3156 40.5725 -7
      vertex 37.4196 46.0101 -7
      vertex 37.4196 46.0101 7
    endloop
  endfacet
  facet normal 0.743145 0.669131 0
    outer loop
      vertex 42.3156 40.5725 7
      vertex 42.3156 40.5725 -7
      vertex 37.4196 46.0101 7
    endloop
  endfacet
  facet normal 0.587785 0.809017 0
    outer loop
      vertex 31.5 50.3109 -7
      vertex 31.5 50.3109 7
      vertex 37.4196 46.0101 -7
    endloop
  endfacet
  facet normal 0.587785 0.809017 0
    outer loop
      vertex 37.4196 46.0101 -7
      vertex 31.5 50.3109 7
      vertex 37.4196 46.0101 7
    endloop
  endfacet
  facet normal 0.406737 0.913545 0
    outer loop
      vertex 24.8156 53.287 -7
      vertex 24.8156 53.287 7
      vertex 31.5 50.3109 -7
    endloop
  endfacet
  facet normal 0.406737 0.913545 0
    outer loop
      vertex 31.5 50.3109 -7
      vertex 24.8156 53.287 7
      vertex 31.5 50.3109 7
    endloop
  endfacet
  facet normal 0.207912 0.978148 0
    outer loop
      vertex 17.6585 54.8083 -7
      vertex 17.6585 54.8083 7
      vertex 24.8156 53.287 -7
    endloop
  endfacet
  facet normal 0.207912 0.978148 0
    outer loop
      vertex 24.8156 53.287 -7
      vertex 17.6585 54.8083 7
      vertex 24.8156 53.287 7
    endloop
  endfacet
  facet normal 0 1 0
    outer loop
      vertex 10.3415 54.8083 -7
      vertex 10.3415 54.8083 -3.5
      vertex 17.6585 54.8083 -7
    endloop
  endfacet
  facet normal 0 1 0
    outer loop
      vertex 17.6585 54.8083 -7
      vertex 10.3415 54.8083 -3.5
      vertex 14 54.8083 -3.5
    endloop
  endfacet
  facet normal 0 1 0
    outer loop
      vertex 17.6585 54.8083 -7
      vertex 14 54.8083 -3.5
      vertex 14 54.8083 7
    endloop
  endfacet
  facet normal 0 1 0
    outer loop
      vertex 17.6585 54.8083 -7
      vertex 14 54.8083 7
      vertex 17.6585 54.8083 7
    endloop
  endfacet
  facet normal -0.207912 0.978148 0
    outer loop
      vertex 3.1844 53.287 -7
      vertex 3.1844 53.287 -3.5
      vertex 10.3415 54.8083 -7
    endloop
  endfacet
  facet normal -0.207912 0.978148 0
    outer loop
      vertex 10.3415 54.8083 -7
      vertex 3.1844 53.287 -3.5
      vertex 10.3415 54.8083 -3.5
    endloop
  endfacet
  facet normal -0.406737 0.913545 0
    outer loop
      vertex -3.5 50.3109 -7
      vertex -3.5 50.3109 -3.5
      vertex 3.1844 53.287 -7
    endloop
  endfacet
  facet normal -0.406737 0.913545 0
    outer loop
      vertex 3.1844 53.287 -7
      vertex -3.5 50.3109 -3.5
      vertex 3.1844 53.287 -3.5
    endloop
  endfacet
  facet normal -0.587785 0.809017 0
    outer loop
      vertex -9.41957 46.0101 -7
      vertex -9.41957 46.0101 -3.5
      vertex -3.5 50.3109 -7
    endloop
  endfacet
  facet normal -0.587785 0.809017 0
    outer loop
      vertex -3.5 50.3109 -7
      vertex -9.41957 46.0101 -3.5
      vertex -3.5 50.3109 -3.5
    endloop
  endfacet
  facet normal -0.743145 0.669131 0
    outer loop
      vertex -14.3156 40.5725 -7
      vertex -14.3156 40.5725 -3.5
      vertex -9.41957 46.0101 -7
    endloop
  endfacet
  facet normal -0.743145 0.669131 0
    outer loop
      vertex -9.41957 46.0101 -7
      vertex -14.3156 40.5725 -3.5
      vertex -9.41957 46.0101 -3.5
    endloop
  endfacet
  facet normal -0.866025 0.5 0
    outer loop
      vertex -17.9741 34.2358 -7
      vertex -17.9741 34.2358 -3.5
      vertex -14.3156 40.5725 -7
    endloop
  endfacet
  facet normal -0.866025 0.5 0
    outer loop
      vertex -14.3156 40.5725 -7
      vertex -17.9741 34.2358 -3.5
      vertex -14.3156 40.5725 -3.5
    endloop
  endfacet
  facet normal -0.951057 0.309017 0
    outer loop
      vertex -20.2352 27.2769 -7
      vertex -20.2352 27.2769 -3.5
      vertex -17.9741 34.2358 -7
    endloop
  endfacet
  facet normal -0.951057 0.309017 0
    outer loop
      vertex -17.9741 34.2358 -7
      vertex -20.2352 27.2769 -3.5
      vertex -17.9741 34.2358 -3.5
    endloop
  endfacet
  facet normal 0.994522 -0.104528 0
    outer loop
      vertex -12.7159 23.7029 -7
      vertex -12.7159 23.7029 -3.5
      vertex -13 21 -3.5
    endloop
  endfacet
  facet normal 0.994522 -0.104528 0
    outer loop
      vertex -13 21 -7
      vertex -12.7159 23.7029 -7
      vertex -13 21 -3.5
    endloop
  endfacet
  facet normal 0.994522 0.104528 0
    outer loop
      vertex -13 21 -3.5
      vertex -12.7159 18.2971 -3.5
      vertex -12.7159 18.2971 -7
    endloop
  endfacet
  facet normal 0.994522 0.104528 0
    outer loop
      vertex -13 21 -7
      vertex -13 21 -3.5
      vertex -12.7159 18.2971 -7
    endloop
  endfacet
  facet normal 0.951056 -0.309017 0
    outer loop
      vertex -11.8761 26.2876 -7
      vertex -11.8761 26.2876 -3.5
      vertex -12.7159 23.7029 -3.5
    endloop
  endfacet
  facet normal 0.951056 -0.309017 0
    outer loop
      vertex -12.7159 23.7029 -7
      vertex -11.8761 26.2876 -7
      vertex -12.7159 23.7029 -3.5
    endloop
  endfacet
  facet normal 0.866025 -0.5 0
    outer loop
      vertex -10.5172 28.6412 -7
      vertex -10.5172 28.6412 -3.5
      vertex -11.8761 26.2876 -3.5
    endloop
  endfacet
  facet normal 0.866025 -0.5 0
    outer loop
      vertex -11.8761 26.2876 -7
      vertex -10.5172 28.6412 -7
      vertex -11.8761 26.2876 -3.5
    endloop
  endfacet
  facet normal 0.743145 -0.66913 0
    outer loop
      vertex -8.6987 30.6609 -7
      vertex -8.6987 30.6609 -3.5
      vertex -10.5172 28.6412 -3.5
    endloop
  endfacet
  facet normal 0.743145 -0.66913 0
    outer loop
      vertex -10.5172 28.6412 -7
      vertex -8.6987 30.6609 -7
      vertex -10.5172 28.6412 -3.5
    endloop
  endfacet
  facet normal 0.587785 -0.809017 0
    outer loop
      vertex -6.5 32.2583 -7
      vertex -6.5 32.2583 -3.5
      vertex -8.6987 30.6609 -3.5
    endloop
  endfacet
  facet normal 0.587785 -0.809017 0
    outer loop
      vertex -8.6987 30.6609 -7
      vertex -6.5 32.2583 -7
      vertex -8.6987 30.6609 -3.5
    endloop
  endfacet
  facet normal 0.406737 -0.913545 0
    outer loop
      vertex -4.01722 33.3637 -7
      vertex -4.01722 33.3637 -3.5
      vertex -6.5 32.2583 -3.5
    endloop
  endfacet
  facet normal 0.406737 -0.913545 0
    outer loop
      vertex -6.5 32.2583 -7
      vertex -4.01722 33.3637 -7
      vertex -6.5 32.2583 -3.5
    endloop
  endfacet
  facet normal 0.207912 -0.978148 0
    outer loop
      vertex -1.35887 33.9288 -7
      vertex -1.35887 33.9288 -3.5
      vertex -4.01722 33.3637 -3.5
    endloop
  endfacet
  facet normal 0.207912 -0.978148 0
    outer loop
      vertex -4.01722 33.3637 -7
      vertex -1.35887 33.9288 -7
      vertex -4.01722 33.3637 -3.5
    endloop
  endfacet
  facet normal 0 -1 0
    outer loop
      vertex 1.35887 33.9288 -7
      vertex 1.35887 33.9288 -3.5
      vertex -1.35887 33.9288 -3.5
    endloop
  endfacet
  facet normal 0 -1 0
    outer loop
      vertex -1.35887 33.9288 -7
      vertex 1.35887 33.9288 -7
      vertex -1.35887 33.9288 -3.5
    endloop
  endfacet
  facet normal -0.207912 -0.978148 0
    outer loop
      vertex 4.01722 33.3637 -7
      vertex 4.01722 33.3637 -3.5
      vertex 1.35887 33.9288 -3.5
    endloop
  endfacet
  facet normal -0.207912 -0.978148 0
    outer loop
      vertex 1.35887 33.9288 -7
      vertex 4.01722 33.3637 -7
      vertex 1.35887 33.9288 -3.5
    endloop
  endfacet
  facet normal -0.406737 -0.913545 0
    outer loop
      vertex 6.5 32.2583 -7
      vertex 6.5 32.2583 -3.5
      vertex 4.01722 33.3637 -3.5
    endloop
  endfacet
  facet normal -0.406737 -0.913545 0
    outer loop
      vertex 4.01722 33.3637 -7
      vertex 6.5 32.2583 -7
      vertex 4.01722 33.3637 -3.5
    endloop
  endfacet
  facet normal -0.587785 -0.809017 0
    outer loop
      vertex 8.6987 30.6609 -7
      vertex 8.6987 30.6609 -3.5
      vertex 6.5 32.2583 -3.5
    endloop
  endfacet
  facet normal -0.587785 -0.809017 0
    outer loop
      vertex 6.5 32.2583 -7
      vertex 8.6987 30.6609 -7
      vertex 6.5 32.2583 -3.5
    endloop
  endfacet
  facet normal -0.743145 -0.66913 0
    outer loop
      vertex 10.5172 28.6412 -3.5
      vertex 8.6987 30.6609 -3.5
      vertex 10.5172 28.6412 -7
    endloop
  endfacet
  facet normal -0.743145 -0.66913 0
    outer loop
      vertex 10.5172 28.6412 -7
      vertex 8.6987 30.6609 -3.5
      vertex 8.6987 30.6609 -7
    endloop
  endfacet
  facet normal -0.866025 -0.5 0
    outer loop
      vertex 11.8761 26.2876 -3.5
      vertex 10.5172 28.6412 -3.5
      vertex 11.8761 26.2876 -7
    endloop
  endfacet
  facet normal -0.866025 -0.5 0
    outer loop
      vertex 11.8761 26.2876 -7
      vertex 10.5172 28.6412 -3.5
      vertex 10.5172 28.6412 -7
    endloop
  endfacet
  facet normal -0.951056 -0.309017 0
    outer loop
      vertex 12.7159 23.7029 -3.5
      vertex 11.8761 26.2876 -3.5
      vertex 12.7159 23.7029 -7
    endloop
  endfacet
  facet normal -0.951056 -0.309017 0
    outer loop
      vertex 12.7159 23.7029 -7
      vertex 11.8761 26.2876 -3.5
      vertex 11.8761 26.2876 -7
    endloop
  endfacet
  facet normal -0.994522 -0.104528 0
    outer loop
      vertex 13 21 -3.5
      vertex 12.7159 23.7029 -3.5
      vertex 13 21 -7
    endloop
  endfacet
  facet normal -0.994522 -0.104528 0
    outer loop
      vertex 13 21 -7
      vertex 12.7159 23.7029 -3.5
      vertex 12.7159 23.7029 -7
    endloop
  endfacet
  facet normal -0.994522 0.104528 0
    outer loop
      vertex 13 21 -3.5
      vertex 13 21 -7
      vertex 12.7159 18.2971 -3.5
    endloop
  endfacet
  facet normal -0.994522 0.104528 0
    outer loop
      vertex 12.7159 18.2971 -3.5
      vertex 13 21 -7
      vertex 12.7159 18.2971 -7
    endloop
  endfacet
  facet normal -0.951056 0.309017 0
    outer loop
      vertex 12.7159 18.2971 -3.5
      vertex 12.7159 18.2971 -7
      vertex 11.8761 15.7124 -3.5
    endloop
  endfacet
  facet normal -0.951056 0.309017 0
    outer loop
      vertex 11.8761 15.7124 -3.5
      vertex 12.7159 18.2971 -7
      vertex 11.8761 15.7124 -7
    endloop
  endfacet
  facet normal -0.866025 0.5 0
    outer loop
      vertex 11.8761 15.7124 -3.5
      vertex 11.8761 15.7124 -7
      vertex 10.5172 13.3588 -3.5
    endloop
  endfacet
  facet normal -0.866025 0.5 0
    outer loop
      vertex 10.5172 13.3588 -3.5
      vertex 11.8761 15.7124 -7
      vertex 10.5172 13.3588 -7
    endloop
  endfacet
  facet normal -0.743145 0.66913 0
    outer loop
      vertex 10.5172 13.3588 -3.5
      vertex 10.5172 13.3588 -7
      vertex 8.6987 11.3391 -3.5
    endloop
  endfacet
  facet normal -0.743145 0.66913 0
    outer loop
      vertex 8.6987 11.3391 -3.5
      vertex 10.5172 13.3588 -7
      vertex 8.6987 11.3391 -7
    endloop
  endfacet
  facet normal -0.587785 0.809017 0
    outer loop
      vertex 8.6987 11.3391 -3.5
      vertex 8.6987 11.3391 -7
      vertex 6.5 9.74167 -3.5
    endloop
  endfacet
  facet normal -0.587785 0.809017 0
    outer loop
      vertex 6.5 9.74167 -3.5
      vertex 8.6987 11.3391 -7
      vertex 6.5 9.74167 -7
    endloop
  endfacet
  facet normal -0.406737 0.913545 0
    outer loop
      vertex 6.5 9.74167 -3.5
      vertex 6.5 9.74167 -7
      vertex 4.01722 8.63626 -3.5
    endloop
  endfacet
  facet normal -0.406737 0.913545 0
    outer loop
      vertex 4.01722 8.63626 -3.5
      vertex 6.5 9.74167 -7
      vertex 4.01722 8.63626 -7
    endloop
  endfacet
  facet normal -0.207912 0.978148 0
    outer loop
      vertex 4.01722 8.63626 -3.5
      vertex 4.01722 8.63626 -7
      vertex 1.35887 8.07122 -3.5
    endloop
  endfacet
  facet normal -0.207912 0.978148 0
    outer loop
      vertex 1.35887 8.07122 -3.5
      vertex 4.01722 8.63626 -7
      vertex 1.35887 8.07122 -7
    endloop
  endfacet
  facet normal 0 1 0
    outer loop
      vertex 1.35887 8.07122 -3.5
      vertex 1.35887 8.07122 -7
      vertex -1.35887 8.07122 -3.5
    endloop
  endfacet
  facet normal 0 1 0
    outer loop
      vertex -1.35887 8.07122 -3.5
      vertex 1.35887 8.07122 -7
      vertex -1.35887 8.07122 -7
    endloop
  endfacet
  facet normal 0.207912 0.978148 0
    outer loop
      vertex -1.35887 8.07122 -3.5
      vertex -1.35887 8.07122 -7
      vertex -4.01722 8.63626 -3.5
    endloop
  endfacet
  facet normal 0.207912 0.978148 0
    outer loop
      vertex -4.01722 8.63626 -3.5
      vertex -1.35887 8.07122 -7
      vertex -4.01722 8.63626 -7
    endloop
  endfacet
  facet normal 0.406737 0.913545 0
    outer loop
      vertex -4.01722 8.63626 -3.5
      vertex -4.01722 8.63626 -7
      vertex -6.5 9.74167 -3.5
    endloop
  endfacet
  facet normal 0.406737 0.913545 0
    outer loop
      vertex -6.5 9.74167 -3.5
      vertex -4.01722 8.63626 -7
      vertex -6.5 9.74167 -7
    endloop
  endfacet
  facet normal 0.587785 0.809017 0
    outer loop
      vertex -6.5 9.74167 -3.5
      vertex -6.5 9.74167 -7
      vertex -8.6987 11.3391 -3.5
    endloop
  endfacet
  facet normal 0.587785 0.809017 0
    outer loop
      vertex -8.6987 11.3391 -3.5
      vertex -6.5 9.74167 -7
      vertex -8.6987 11.3391 -7
    endloop
  endfacet
  facet normal 0.743145 0.66913 0
    outer loop
      vertex -10.5172 13.3588 -3.5
      vertex -8.6987 11.3391 -3.5
      vertex -8.6987 11.3391 -7
    endloop
  endfacet
  facet normal 0.743145 0.66913 0
    outer loop
      vertex -10.5172 13.3588 -7
      vertex -10.5172 13.3588 -3.5
      vertex -8.6987 11.3391 -7
    endloop
  endfacet
  facet normal 0.866025 0.5 0
    outer loop
      vertex -11.8761 15.7124 -3.5
      vertex -10.5172 13.3588 -3.5
      vertex -10.5172 13.3588 -7
    endloop
  endfacet
  facet normal 0.866025 0.5 0
    outer loop
      vertex -11.8761 15.7124 -7
      vertex -11.8761 15.7124 -3.5
      vertex -10.5172 13.3588 -7
    endloop
  endfacet
  facet normal 0.951056 0.309017 0
    outer loop
      vertex -12.7159 18.2971 -3.5
      vertex -11.8761 15.7124 -3.5
      vertex -11.8761 15.7124 -7
    endloop
  endfacet
  facet normal 0.951056 0.309017 0
    outer loop
      vertex -12.7159 18.2971 -7
      vertex -12.7159 18.2971 -3.5
      vertex -11.8761 15.7124 -7
    endloop
  endfacet
  facet normal 0.62349 -0.781831 0
    outer loop
      vertex -0.445042 47.9499 -7
      vertex -0.445042 47.9499 -3.5
      vertex -1.80194 46.8678 -3.5
    endloop
  endfacet
  facet normal 0.62349 -0.781831 0
    outer loop
      vertex -1.80194 46.8678 -7
      vertex -0.445042 47.9499 -7
      vertex -1.80194 46.8678 -3.5
    endloop
  endfacet
  facet normal 1 0 0
    outer loop
      vertex -1.80194 46.8678 -7
      vertex -1.80194 46.8678 -3.5
      vertex -1.80194 45.1322 -3.5
    endloop
  endfacet
  facet normal 1 0 0
    outer loop
      vertex -1.80194 45.1322 -7
      vertex -1.80194 46.8678 -7
      vertex -1.80194 45.1322 -3.5
    endloop
  endfacet
  facet normal -0.222521 -0.974928 0
    outer loop
      vertex 1.24698 47.5637 -7
      vertex 1.24698 47.5637 -3.5
      vertex -0.445042 47.9499 -3.5
    endloop
  endfacet
  facet normal -0.222521 -0.974928 0
    outer loop
      vertex -0.445042 47.9499 -7
      vertex 1.24698 47.5637 -7
      vertex -0.445042 47.9499 -3.5
    endloop
  endfacet
  facet normal -0.900969 -0.433884 0
    outer loop
      vertex 2 46 -3.5
      vertex 1.24698 47.5637 -3.5
      vertex 2 46 -7
    endloop
  endfacet
  facet normal -0.900969 -0.433884 0
    outer loop
      vertex 2 46 -7
      vertex 1.24698 47.5637 -3.5
      vertex 1.24698 47.5637 -7
    endloop
  endfacet
  facet normal -0.900969 0.433884 0
    outer loop
      vertex 2 46 -3.5
      vertex 2 46 -7
      vertex 1.24698 44.4363 -3.5
    endloop
  endfacet
  facet normal -0.900969 0.433884 0
    outer loop
      vertex 1.24698 44.4363 -3.5
      vertex 2 46 -7
      vertex 1.24698 44.4363 -7
    endloop
  endfacet
  facet normal -0.222521 0.974928 0
    outer loop
      vertex 1.24698 44.4363 -3.5
      vertex 1.24698 44.4363 -7
      vertex -0.445042 44.0501 -3.5
    endloop
  endfacet
  facet normal -0.222521 0.974928 0
    outer loop
      vertex -0.445042 44.0501 -3.5
      vertex 1.24698 44.4363 -7
      vertex -0.445042 44.0501 -7
    endloop
  endfacet
  facet normal 0.62349 0.781831 0
    outer loop
      vertex -0.445042 44.0501 -3.5
      vertex -0.445042 44.0501 -7
      vertex -1.80194 45.1322 -3.5
    endloop
  endfacet
  facet normal 0.62349 0.781831 0
    outer loop
      vertex -1.80194 45.1322 -3.5
      vertex -0.445042 44.0501 -7
      vertex -1.80194 45.1322 -7
    endloop
  endfacet
  facet normal 0 0 1
    outer loop
      vertex -20.2352 12.7231 -3.5
      vertex -17.9741 5.76422 -3.5
      vertex -14.3156 -0.572484 -3.5
    endloop
  endfacet
  facet normal 0 0 1
    outer loop
      vertex -3.5 -10.3109 -3.5
      vertex -20.2352 12.7231 -3.5
      vertex -9.41957 -6.01007 -3.5
    endloop
  endfacet
  facet normal 0 0 1
    outer loop
      vertex -9.41957 -6.01007 -3.5
      vertex -20.2352 12.7231 -3.5
      vertex -14.3156 -0.572484 -3.5
    endloop
  endfacet
  facet normal 0 0 1
    outer loop
      vertex 3.1844 -13.287 -3.5
      vertex -20.2352 12.7231 -3.5
      vertex -3.5 -10.3109 -3.5
    endloop
  endfacet
  facet normal 0 0 1
    outer loop
      vertex 10.3415 -14.8083 -3.5
      vertex -20.2352 12.7231 -3.5
      vertex 3.1844 -13.287 -3.5
    endloop
  endfacet
  facet normal 0 0 1
    outer loop
      vertex 14 -14.8083 -3.5
      vertex -20.2352 12.7231 -3.5
      vertex 10.3415 -14.8083 -3.5
    endloop
  endfacet
  facet normal 0 0 1
    outer loop
      vertex -4.01722 8.63626 -3.5
      vertex -20.2352 12.7231 -3.5
      vertex 14 -14.8083 -3.5
    endloop
  endfacet
  facet normal 0 0 1
    outer loop
      vertex 11.8761 15.7124 -3.5
      vertex 10.5172 13.3588 -3.5
      vertex 14 -14.8083 -3.5
    endloop
  endfacet
  facet normal 0 0 1
    outer loop
      vertex -9.41957 46.0101 -3.5
      vertex -20.2352 12.7231 -3.5
      vertex -3.5 50.3109 -3.5
    endloop
  endfacet
  facet normal 0 0 1
    outer loop
      vertex -14.3156 40.5725 -3.5
      vertex -20.2352 12.7231 -3.5
      vertex -9.41957 46.0101 -3.5
    endloop
  endfacet
  facet normal 0 0 1
    outer loop
      vertex -17.9741 34.2358 -3.5
      vertex -20.2352 12.7231 -3.5
      vertex -14.3156 40.5725 -3.5
    endloop
  endfacet
  facet normal 0 0 1
    outer loop
      vertex -20.2352 27.2769 -3.5
      vertex -20.2352 12.7231 -3.5
      vertex -17.9741 34.2358 -3.5
    endloop
  endfacet
  facet normal 0 0 1
    outer loop
      vertex -21 20 -3.5
      vertex -20.2352 12.7231 -3.5
      vertex -20.2352 27.2769 -3.5
    endloop
  endfacet
  facet normal 0 0 1
    outer loop
      vertex -1.80194 45.1322 -3.5
      vertex -1.80194 46.8678 -3.5
      vertex -20.2352 12.7231 -3.5
    endloop
  endfacet
  facet normal 0 0 1
    outer loop
      vertex -4.01722 33.3637 -3.5
      vertex -1.35887 33.9288 -3.5
      vertex 14 54.8083 -3.5
    endloop
  endfacet
  facet normal 0 0 1
    outer loop
      vertex -11.8761 26.2876 -3.5
      vertex -20.2352 12.7231 -3.5
      vertex -12.7159 23.7029 -3.5
    endloop
  endfacet
  facet normal 0 0 1
    outer loop
      vertex -6.5 32.2583 -3.5
      vertex -4.01722 33.3637 -3.5
      vertex 10.3415 54.8083 -3.5
    endloop
  endfacet
  facet normal 0 0 1
    outer loop
      vertex -0.445042 44.0501 -3.5
      vertex -1.80194 45.1322 -3.5
      vertex -10.5172 28.6412 -3.5
    endloop
  endfacet
  facet normal 0 0 1
    outer loop
      vertex 1.24698 44.4363 -3.5
      vertex -8.6987 30.6609 -3.5
      vertex 10.3415 54.8083 -3.5
    endloop
  endfacet
  facet normal 0 0 1
    outer loop
      vertex -8.6987 30.6609 -3.5
      vertex -6.5 32.2583 -3.5
      vertex 10.3415 54.8083 -3.5
    endloop
  endfacet
  facet normal 0 0 1
    outer loop
      vertex 10.3415 54.8083 -3.5
      vertex -4.01722 33.3637 -3.5
      vertex 14 54.8083 -3.5
    endloop
  endfacet
  facet normal 0 0 1
    outer loop
      vertex 1.24698 44.4363 -3.5
      vertex -0.445042 44.0501 -3.5
      vertex -8.6987 30.6609 -3.5
    endloop
  endfacet
  facet normal 0 0 1
    outer loop
      vertex -1.35887 8.07122 -3.5
      vertex -4.01722 8.63626 -3.5
      vertex 14 -14.8083 -3.5
    endloop
  endfacet
  facet normal 0 0 1
    outer loop
      vertex 6.5 9.74167 -3.5
      vertex 4.01722 8.63626 -3.5
      vertex 14 -14.8083 -3.5
    endloop
  endfacet
  facet normal 0 0 1
    outer loop
      vertex 14 54.8083 -3.5
      vertex -1.35887 33.9288 -3.5
      vertex 1.35887 33.9288 -3.5
    endloop
  endfacet
  facet normal 0 0 1
    outer loop
      vertex -10.5172 28.6412 -3.5
      vertex -1.80194 45.1322 -3.5
      vertex -20.2352 12.7231 -3.5
    endloop
  endfacet
  facet normal 0 0 1
    outer loop
      vertex 14 54.8083 -3.5
      vertex 1.35887 33.9288 -3.5
      vertex 4.01722 33.3637 -3.5
    endloop
  endfacet
  facet normal 0 0 1
    outer loop
      vertex 14 54.8083 -3.5
      vertex 4.01722 33.3637 -3.5
      vertex 6.5 32.2583 -3.5
    endloop
  endfacet
  facet normal 0 0 1
    outer loop
      vertex 10.5172 13.3588 -3.5
      vertex 8.6987 11.3391 -3.5
      vertex 14 -14.8083 -3.5
    endloop
  endfacet
  facet normal 0 0 1
    outer loop
      vertex 14 54.8083 -3.5
      vertex 6.5 32.2583 -3.5
      vertex 8.6987 30.6609 -3.5
    endloop
  endfacet
  facet normal 0 0 1
    outer loop
      vertex 8.6987 11.3391 -3.5
      vertex 6.5 9.74167 -3.5
      vertex 14 -14.8083 -3.5
    endloop
  endfacet
  facet normal 0 0 1
    outer loop
      vertex 14 54.8083 -3.5
      vertex 8.6987 30.6609 -3.5
      vertex 10.5172 28.6412 -3.5
    endloop
  endfacet
  facet normal 0 0 1
    outer loop
      vertex 14 54.8083 -3.5
      vertex 10.5172 28.6412 -3.5
      vertex 11.8761 26.2876 -3.5
    endloop
  endfacet
  facet normal 0 0 1
    outer loop
      vertex 12.7159 18.2971 -3.5
      vertex 11.8761 15.7124 -3.5
      vertex 14 -14.8083 -3.5
    endloop
  endfacet
  facet normal 0 0 1
    outer loop
      vertex 14 54.8083 -3.5
      vertex 11.8761 26.2876 -3.5
      vertex 12.7159 23.7029 -3.5
    endloop
  endfacet
  facet normal 0 0 1
    outer loop
      vertex 14 54.8083 -3.5
      vertex 13 21 -3.5
      vertex 14 -14.8083 -3.5
    endloop
  endfacet
  facet normal 0 0 1
    outer loop
      vertex 14 54.8083 -3.5
      vertex 12.7159 23.7029 -3.5
      vertex 13 21 -3.5
    endloop
  endfacet
  facet normal 0 0 1
    outer loop
      vertex 4.01722 8.63626 -3.5
      vertex 1.35887 8.07122 -3.5
      vertex 14 -14.8083 -3.5
    endloop
  endfacet
  facet normal 0 0 1
    outer loop
      vertex 1.35887 8.07122 -3.5
      vertex -1.35887 8.07122 -3.5
      vertex 14 -14.8083 -3.5
    endloop
  endfacet
  facet normal 0 0 1
    outer loop
      vertex -6.5 9.74167 -3.5
      vertex -20.2352 12.7231 -3.5
      vertex -4.01722 8.63626 -3.5
    endloop
  endfacet
  facet normal 0 0 1
    outer loop
      vertex -8.6987 11.3391 -3.5
      vertex -20.2352 12.7231 -3.5
      vertex -6.5 9.74167 -3.5
    endloop
  endfacet
  facet normal 0 0 1
    outer loop
      vertex -10.5172 13.3588 -3.5
      vertex -20.2352 12.7231 -3.5
      vertex -8.6987 11.3391 -3.5
    endloop
  endfacet
  facet normal 0 0 1
    outer loop
      vertex -11.8761 15.7124 -3.5
      vertex -20.2352 12.7231 -3.5
      vertex -10.5172 13.3588 -3.5
    endloop
  endfacet
  facet normal 0 0 1
    outer loop
      vertex -12.7159 18.2971 -3.5
      vertex -20.2352 12.7231 -3.5
      vertex -11.8761 15.7124 -3.5
    endloop
  endfacet
  facet normal 0 0 1
    outer loop
      vertex -13 21 -3.5
      vertex -20.2352 12.7231 -3.5
      vertex -12.7159 18.2971 -3.5
    endloop
  endfacet
  facet normal 0 0 1
    outer loop
      vertex -3.5 50.3109 -3.5
      vertex -1.80194 46.8678 -3.5
      vertex 3.1844 53.287 -3.5
    endloop
  endfacet
  facet normal 0 0 1
    outer loop
      vertex -3.5 50.3109 -3.5
      vertex -20.2352 12.7231 -3.5
      vertex -1.80194 46.8678 -3.5
    endloop
  endfacet
  facet normal 0 0 1
    outer loop
      vertex -1.80194 46.8678 -3.5
      vertex -0.445042 47.9499 -3.5
      vertex 3.1844 53.287 -3.5
    endloop
  endfacet
  facet normal 0 0 1
    outer loop
      vertex 3.1844 53.287 -3.5
      vertex 1.24698 47.5637 -3.5
      vertex 10.3415 54.8083 -3.5
    endloop
  endfacet
  facet normal 0 0 1
    outer loop
      vertex 1.24698 47.5637 -3.5
      vertex 2 46 -3.5
      vertex 10.3415 54.8083 -3.5
    endloop
  endfacet
  facet normal 0 0 1
    outer loop
      vertex 2 46 -3.5
      vertex 1.24698 44.4363 -3.5
      vertex 10.3415 54.8083 -3.5
    endloop
  endfacet
  facet normal 0 0 1
    outer loop
      vertex -0.445042 44.0501 -3.5
      vertex -10.5172 28.6412 -3.5
      vertex -8.6987 30.6609 -3.5
    endloop
  endfacet
  facet normal 0 0 1
    outer loop
      vertex -10.5172 28.6412 -3.5
      vertex -20.2352 12.7231 -3.5
      vertex -11.8761 26.2876 -3.5
    endloop
  endfacet
  facet normal 0 0 1
    outer loop
      vertex 13 21 -3.5
      vertex 12.7159 18.2971 -3.5
      vertex 14 -14.8083 -3.5
    endloop
  endfacet
  facet normal 0 0 1
    outer loop
      vertex -13 21 -3.5
      vertex -12.7159 23.7029 -3.5
      vertex -20.2352 12.7231 -3.5
    endloop
  endfacet
  facet normal 0 0 1
    outer loop
      vertex -0.445042 47.9499 -3.5
      vertex 1.24698 47.5637 -3.5
      vertex 3.1844 53.287 -3.5
    endloop
  endfacet
  facet normal -1 0 0
    outer loop
      vertex 14 35.4266 2.53648
      vertex 14 54.8083 -3.5
      vertex 14 34 1.5
    endloop
  endfacet
  facet normal -1 0 0
    outer loop
      vertex 14 4.5 1.5
      vertex 14 54.8083 -3.5
      vertex 14 -14.8083 -3.5
    endloop
  endfacet
  facet normal -1 0 0
    outer loop
      vertex 14 5.38168 4.21353
      vertex 14 54.8083 -3.5
      vertex 14 5.92658 2.53648
    endloop
  endfacet
  facet normal -1 0 0
    outer loop
      vertex 14 -14.8083 7
      vertex 14 3.07341 2.53648
      vertex 14 -14.8083 -3.5
    endloop
  endfacet
  facet normal -1 0 0
    outer loop
      vertex 14 3.61832 4.21353
      vertex 14 -14.8083 7
      vertex 14 5.38168 4.21353
    endloop
  endfacet
  facet normal -1 0 0
    outer loop
      vertex 14 3.07341 2.53648
      vertex 14 4.5 1.5
      vertex 14 -14.8083 -3.5
    endloop
  endfacet
  facet normal -1 0 0
    outer loop
      vertex 14 5.92658 2.53648
      vertex 14 54.8083 -3.5
      vertex 14 4.5 1.5
    endloop
  endfacet
  facet normal -1 0 0
    outer loop
      vertex 14 34 1.5
      vertex 14 54.8083 -3.5
      vertex 14 5.38168 4.21353
    endloop
  endfacet
  facet normal -1 0 0
    outer loop
      vertex 14 54.8083 7
      vertex 14 5.38168 4.21353
      vertex 14 -14.8083 7
    endloop
  endfacet
  facet normal -1 0 0
    outer loop
      vertex 14 34.8817 4.21353
      vertex 14 54.8083 7
      vertex 14 35.4266 2.53648
    endloop
  endfacet
  facet normal -1 0 0
    outer loop
      vertex 14 33.1183 4.21353
      vertex 14 32.5734 2.53648
      vertex 14 5.38168 4.21353
    endloop
  endfacet
  facet normal -1 0 0
    outer loop
      vertex 14 32.5734 2.53648
      vertex 14 34 1.5
      vertex 14 5.38168 4.21353
    endloop
  endfacet
  facet normal -1 0 0
    outer loop
      vertex 14 54.8083 7
      vertex 14 54.8083 -3.5
      vertex 14 35.4266 2.53648
    endloop
  endfacet
  facet normal -1 0 0
    outer loop
      vertex 14 54.8083 7
      vertex 14 33.1183 4.21353
      vertex 14 5.38168 4.21353
    endloop
  endfacet
  facet normal -1 0 0
    outer loop
      vertex 14 34.8817 4.21353
      vertex 14 33.1183 4.21353
      vertex 14 54.8083 7
    endloop
  endfacet
  facet normal -1 0 0
    outer loop
      vertex 14 3.07341 2.53648
      vertex 14 -14.8083 7
      vertex 14 3.61832 4.21353
    endloop
  endfacet
  facet normal 0 0 1
    outer loop
      vertex 16.7865 -0.881678 7
      vertex 14 -14.8083 7
      vertex 17.6585 -14.8083 7
    endloop
  endfacet
  facet normal 0 0 1
    outer loop
      vertex 31.5 -10.3109 7
      vertex 14 54.8083 7
      vertex 24.8156 -13.287 7
    endloop
  endfacet
  facet normal 0 0 1
    outer loop
      vertex 37.4196 -6.01007 7
      vertex 14 54.8083 7
      vertex 31.5 -10.3109 7
    endloop
  endfacet
  facet normal 0 0 1
    outer loop
      vertex 36.7865 -0.881678 7
      vertex 14 54.8083 7
      vertex 37.4196 -6.01007 7
    endloop
  endfacet
  facet normal 0 0 1
    outer loop
      vertex 45.9741 5.76422 7
      vertex 14 54.8083 7
      vertex 42.3156 -0.572484 7
    endloop
  endfacet
  facet normal 0 0 1
    outer loop
      vertex 48.2352 12.7231 7
      vertex 14 54.8083 7
      vertex 45.9741 5.76422 7
    endloop
  endfacet
  facet normal 0 0 1
    outer loop
      vertex 49 20 7
      vertex 14 54.8083 7
      vertex 48.2352 12.7231 7
    endloop
  endfacet
  facet normal 0 0 1
    outer loop
      vertex 48.2352 27.2769 7
      vertex 14 54.8083 7
      vertex 49 20 7
    endloop
  endfacet
  facet normal 0 0 1
    outer loop
      vertex 45.9741 34.2358 7
      vertex 14 54.8083 7
      vertex 48.2352 27.2769 7
    endloop
  endfacet
  facet normal 0 0 1
    outer loop
      vertex 42.3156 40.5725 7
      vertex 14 54.8083 7
      vertex 45.9741 34.2358 7
    endloop
  endfacet
  facet normal 0 0 1
    outer loop
      vertex 37.4196 46.0101 7
      vertex 14 54.8083 7
      vertex 42.3156 40.5725 7
    endloop
  endfacet
  facet normal 0 0 1
    outer loop
      vertex 31.5 50.3109 7
      vertex 14 54.8083 7
      vertex 37.4196 46.0101 7
    endloop
  endfacet
  facet normal 0 0 1
    outer loop
      vertex 24.8156 53.287 7
      vertex 14 54.8083 7
      vertex 31.5 50.3109 7
    endloop
  endfacet
  facet normal 0 0 1
    outer loop
      vertex 17.6585 54.8083 7
      vertex 14 54.8083 7
      vertex 24.8156 53.287 7
    endloop
  endfacet
  facet normal 0 0 1
    outer loop
      vertex 14 54.8083 7
      vertex 14 -14.8083 7
      vertex 16.7865 -0.881678 7
    endloop
  endfacet
  facet normal 0 0 1
    outer loop
      vertex 19.5 0 7
      vertex 18.4635 -1.42658 7
      vertex 24.8156 -13.287 7
    endloop
  endfacet
  facet normal 0 0 1
    outer loop
      vertex 14 54.8083 7
      vertex 16.7865 -0.881678 7
      vertex 16.7865 0.881678 7
    endloop
  endfacet
  facet normal 0 0 1
    outer loop
      vertex 19.5 0 7
      vertex 14 54.8083 7
      vertex 18.4635 1.42658 7
    endloop
  endfacet
  facet normal 0 0 1
    outer loop
      vertex 38.4635 1.42658 7
      vertex 39.5 0 7
      vertex 42.3156 -0.572484 7
    endloop
  endfacet
  facet normal 0 0 1
    outer loop
      vertex 24.8156 -13.287 7
      vertex 14 54.8083 7
      vertex 19.5 0 7
    endloop
  endfacet
  facet normal 0 0 1
    outer loop
      vertex 24.8156 -13.287 7
      vertex 18.4635 -1.42658 7
      vertex 17.6585 -14.8083 7
    endloop
  endfacet
  facet normal 0 0 1
    outer loop
      vertex 38.4635 -1.42658 7
      vertex 36.7865 -0.881678 7
      vertex 37.4196 -6.01007 7
    endloop
  endfacet
  facet normal 0 0 1
    outer loop
      vertex 36.7865 0.881678 7
      vertex 14 54.8083 7
      vertex 36.7865 -0.881678 7
    endloop
  endfacet
  facet normal 0 0 1
    outer loop
      vertex 38.4635 1.42658 7
      vertex 14 54.8083 7
      vertex 36.7865 0.881678 7
    endloop
  endfacet
  facet normal 0 0 1
    outer loop
      vertex 39.5 0 7
      vertex 38.4635 -1.42658 7
      vertex 42.3156 -0.572484 7
    endloop
  endfacet
  facet normal 0 0 1
    outer loop
      vertex 42.3156 -0.572484 7
      vertex 14 54.8083 7
      vertex 38.4635 1.42658 7
    endloop
  endfacet
  facet normal 0 0 1
    outer loop
      vertex 42.3156 -0.572484 7
      vertex 38.4635 -1.42658 7
      vertex 37.4196 -6.01007 7
    endloop
  endfacet
  facet normal 0 0 1
    outer loop
      vertex 16.7865 0.881678 7
      vertex 18.4635 1.42658 7
      vertex 14 54.8083 7
    endloop
  endfacet
  facet normal 0 0 1
    outer loop
      vertex 18.4635 -1.42658 7
      vertex 16.7865 -0.881678 7
      vertex 17.6585 -14.8083 7
    endloop
  endfacet
  facet normal 2.11177e-16 -0.309017 -0.951057
    outer loop
      vertex 46.1363 6.26336 5.42705
      vertex 45.9741 5.76422 5.58923
      vertex 20 6.26336 5.42705
    endloop
  endfacet
  facet normal 2.11177e-16 -0.309017 -0.951057
    outer loop
      vertex 20 6.26336 5.42705
      vertex 45.9741 5.76422 5.58923
      vertex 45.2442 4.5 6
    endloop
  endfacet
  facet normal 2.11177e-16 -0.309017 -0.951057
    outer loop
      vertex 20 6.26336 5.42705
      vertex 45.2442 4.5 6
      vertex 20 4.5 6
    endloop
  endfacet
  facet normal 2.11177e-16 0.309017 -0.951057
    outer loop
      vertex 44.2261 2.73664 5.42705
      vertex 20 2.73664 5.42705
      vertex 45.2442 4.5 6
    endloop
  endfacet
  facet normal 2.11177e-16 0.309017 -0.951057
    outer loop
      vertex 45.2442 4.5 6
      vertex 20 2.73664 5.42705
      vertex 20 4.5 6
    endloop
  endfacet
  facet normal 1.30515e-16 0.809017 -0.587785
    outer loop
      vertex 43.5969 1.64683 3.92705
      vertex 20 1.64683 3.92705
      vertex 44.2261 2.73664 5.42705
    endloop
  endfacet
  facet normal 1.30515e-16 0.809017 -0.587785
    outer loop
      vertex 44.2261 2.73664 5.42705
      vertex 20 1.64683 3.92705
      vertex 20 2.73664 5.42705
    endloop
  endfacet
  facet normal 0 1 0
    outer loop
      vertex 43.5969 1.64683 2.07295
      vertex 20 1.64683 2.07295
      vertex 43.5969 1.64683 3.92705
    endloop
  endfacet
  facet normal 0 1 0
    outer loop
      vertex 43.5969 1.64683 3.92705
      vertex 20 1.64683 2.07295
      vertex 20 1.64683 3.92705
    endloop
  endfacet
  facet normal -1.30515e-16 0.809017 0.587785
    outer loop
      vertex 44.2261 2.73664 0.572949
      vertex 20 2.73664 0.572949
      vertex 43.5969 1.64683 2.07295
    endloop
  endfacet
  facet normal -1.30515e-16 0.809017 0.587785
    outer loop
      vertex 43.5969 1.64683 2.07295
      vertex 20 2.73664 0.572949
      vertex 20 1.64683 2.07295
    endloop
  endfacet
  facet normal -2.11177e-16 0.309017 0.951057
    outer loop
      vertex 44.2261 2.73664 0.572949
      vertex 45.2442 4.5 5.60534e-15
      vertex 20 4.5 0
    endloop
  endfacet
  facet normal -2.11177e-16 0.309017 0.951057
    outer loop
      vertex 20 2.73664 0.572949
      vertex 44.2261 2.73664 0.572949
      vertex 20 4.5 0
    endloop
  endfacet
  facet normal -2.11177e-16 -0.309017 0.951057
    outer loop
      vertex 20 4.5 0
      vertex 45.2442 4.5 5.60534e-15
      vertex 45.9741 5.76422 0.410769
    endloop
  endfacet
  facet normal -2.11177e-16 -0.309017 0.951057
    outer loop
      vertex 20 6.26336 0.572949
      vertex 20 4.5 0
      vertex 46.1363 6.26336 0.572949
    endloop
  endfacet
  facet normal -2.11177e-16 -0.309017 0.951057
    outer loop
      vertex 46.1363 6.26336 0.572949
      vertex 20 4.5 0
      vertex 45.9741 5.76422 0.410769
    endloop
  endfacet
  facet normal -1.30515e-16 -0.809017 0.587785
    outer loop
      vertex 20 6.26336 0.572949
      vertex 46.1363 6.26336 0.572949
      vertex 46.4904 7.35317 2.07295
    endloop
  endfacet
  facet normal -1.30515e-16 -0.809017 0.587785
    outer loop
      vertex 20 7.35317 2.07295
      vertex 20 6.26336 0.572949
      vertex 46.4904 7.35317 2.07295
    endloop
  endfacet
  facet normal 0 -1 0
    outer loop
      vertex 20 7.35317 2.07295
      vertex 46.4904 7.35317 2.07295
      vertex 46.4904 7.35317 3.92705
    endloop
  endfacet
  facet normal 0 -1 0
    outer loop
      vertex 20 7.35317 3.92705
      vertex 20 7.35317 2.07295
      vertex 46.4904 7.35317 3.92705
    endloop
  endfacet
  facet normal 1.30515e-16 -0.809017 -0.587785
    outer loop
      vertex 20 7.35317 3.92705
      vertex 46.4904 7.35317 3.92705
      vertex 46.1363 6.26336 5.42705
    endloop
  endfacet
  facet normal 1.30515e-16 -0.809017 -0.587785
    outer loop
      vertex 20 6.26336 5.42705
      vertex 20 7.35317 3.92705
      vertex 46.1363 6.26336 5.42705
    endloop
  endfacet
  facet normal 2.11177e-16 -0.309017 -0.951057
    outer loop
      vertex 45.0921 35.7634 5.42705
      vertex 45.9741 34.2358 5.92339
      vertex 20 35.7634 5.42705
    endloop
  endfacet
  facet normal 2.11177e-16 -0.309017 -0.951057
    outer loop
      vertex 20 35.7634 5.42705
      vertex 45.9741 34.2358 5.92339
      vertex 46.0507 34 6
    endloop
  endfacet
  facet normal 2.11177e-16 -0.309017 -0.951057
    outer loop
      vertex 20 35.7634 5.42705
      vertex 46.0507 34 6
      vertex 20 34 6
    endloop
  endfacet
  facet normal 2.11177e-16 0.309017 -0.951057
    outer loop
      vertex 46.6237 32.2366 5.42705
      vertex 20 32.2366 5.42705
      vertex 46.0507 34 6
    endloop
  endfacet
  facet normal 2.11177e-16 0.309017 -0.951057
    outer loop
      vertex 46.0507 34 6
      vertex 20 32.2366 5.42705
      vertex 20 34 6
    endloop
  endfacet
  facet normal 1.30515e-16 0.809017 -0.587785
    outer loop
      vertex 46.9778 31.1468 3.92705
      vertex 20 31.1468 3.92705
      vertex 46.6237 32.2366 5.42705
    endloop
  endfacet
  facet normal 1.30515e-16 0.809017 -0.587785
    outer loop
      vertex 46.6237 32.2366 5.42705
      vertex 20 31.1468 3.92705
      vertex 20 32.2366 5.42705
    endloop
  endfacet
  facet normal 0 1 0
    outer loop
      vertex 46.9778 31.1468 2.07295
      vertex 20 31.1468 2.07295
      vertex 46.9778 31.1468 3.92705
    endloop
  endfacet
  facet normal 0 1 0
    outer loop
      vertex 46.9778 31.1468 3.92705
      vertex 20 31.1468 2.07295
      vertex 20 31.1468 3.92705
    endloop
  endfacet
  facet normal -1.30515e-16 0.809017 0.587785
    outer loop
      vertex 46.6237 32.2366 0.572949
      vertex 20 32.2366 0.572949
      vertex 46.9778 31.1468 2.07295
    endloop
  endfacet
  facet normal -1.30515e-16 0.809017 0.587785
    outer loop
      vertex 46.9778 31.1468 2.07295
      vertex 20 32.2366 0.572949
      vertex 20 31.1468 2.07295
    endloop
  endfacet
  facet normal -2.11177e-16 0.309017 0.951057
    outer loop
      vertex 46.6237 32.2366 0.572949
      vertex 46.0507 34 5.78442e-15
      vertex 20 34 0
    endloop
  endfacet
  facet normal -2.11177e-16 0.309017 0.951057
    outer loop
      vertex 20 32.2366 0.572949
      vertex 46.6237 32.2366 0.572949
      vertex 20 34 0
    endloop
  endfacet
  facet normal -2.11177e-16 -0.309017 0.951057
    outer loop
      vertex 20 34 0
      vertex 46.0507 34 5.78442e-15
      vertex 45.9741 34.2358 0.0766105
    endloop
  endfacet
  facet normal -2.11177e-16 -0.309017 0.951057
    outer loop
      vertex 20 35.7634 0.572949
      vertex 20 34 0
      vertex 45.0921 35.7634 0.572949
    endloop
  endfacet
  facet normal -2.11177e-16 -0.309017 0.951057
    outer loop
      vertex 45.0921 35.7634 0.572949
      vertex 20 34 0
      vertex 45.9741 34.2358 0.0766105
    endloop
  endfacet
  facet normal -1.30515e-16 -0.809017 0.587785
    outer loop
      vertex 20 35.7634 0.572949
      vertex 45.0921 35.7634 0.572949
      vertex 44.4629 36.8532 2.07295
    endloop
  endfacet
  facet normal -1.30515e-16 -0.809017 0.587785
    outer loop
      vertex 20 36.8532 2.07295
      vertex 20 35.7634 0.572949
      vertex 44.4629 36.8532 2.07295
    endloop
  endfacet
  facet normal 0 -1 0
    outer loop
      vertex 20 36.8532 2.07295
      vertex 44.4629 36.8532 2.07295
      vertex 44.4629 36.8532 3.92705
    endloop
  endfacet
  facet normal 0 -1 0
    outer loop
      vertex 20 36.8532 3.92705
      vertex 20 36.8532 2.07295
      vertex 44.4629 36.8532 3.92705
    endloop
  endfacet
  facet normal 1.30515e-16 -0.809017 -0.587785
    outer loop
      vertex 20 36.8532 3.92705
      vertex 44.4629 36.8532 3.92705
      vertex 45.0921 35.7634 5.42705
    endloop
  endfacet
  facet normal 1.30515e-16 -0.809017 -0.587785
    outer loop
      vertex 20 35.7634 5.42705
      vertex 20 36.8532 3.92705
      vertex 45.0921 35.7634 5.42705
    endloop
  endfacet
  facet normal 6.86156e-17 0.951056 -0.309017
    outer loop
      vertex 20 3.61832 4.21353
      vertex 20 3.07341 2.53648
      vertex 14 3.61832 4.21353
    endloop
  endfacet
  facet normal 6.86156e-17 0.951056 -0.309017
    outer loop
      vertex 14 3.61832 4.21353
      vertex 20 3.07341 2.53648
      vertex 14 3.07341 2.53648
    endloop
  endfacet
  facet normal -1.79638e-16 0.587785 0.809017
    outer loop
      vertex 20 3.07341 2.53648
      vertex 20 4.5 1.5
      vertex 14 4.5 1.5
    endloop
  endfacet
  facet normal -1.79638e-16 0.587785 0.809017
    outer loop
      vertex 14 3.07341 2.53648
      vertex 20 3.07341 2.53648
      vertex 14 4.5 1.5
    endloop
  endfacet
  facet normal 2.22045e-16 0 -1
    outer loop
      vertex 20 5.38168 4.21353
      vertex 20 3.61832 4.21353
      vertex 14 5.38168 4.21353
    endloop
  endfacet
  facet normal 2.22045e-16 0 -1
    outer loop
      vertex 14 5.38168 4.21353
      vertex 20 3.61832 4.21353
      vertex 14 3.61832 4.21353
    endloop
  endfacet
  facet normal 6.86156e-17 -0.951056 -0.309017
    outer loop
      vertex 14 5.92658 2.53648
      vertex 20 5.92658 2.53648
      vertex 20 5.38168 4.21353
    endloop
  endfacet
  facet normal 6.86156e-17 -0.951056 -0.309017
    outer loop
      vertex 14 5.38168 4.21353
      vertex 14 5.92658 2.53648
      vertex 20 5.38168 4.21353
    endloop
  endfacet
  facet normal -1.79638e-16 -0.587785 0.809017
    outer loop
      vertex 20 4.5 1.5
      vertex 20 5.92658 2.53648
      vertex 14 5.92658 2.53648
    endloop
  endfacet
  facet normal -1.79638e-16 -0.587785 0.809017
    outer loop
      vertex 14 4.5 1.5
      vertex 20 4.5 1.5
      vertex 14 5.92658 2.53648
    endloop
  endfacet
  facet normal 6.86156e-17 0.951056 -0.309017
    outer loop
      vertex 20 33.1183 4.21353
      vertex 20 32.5734 2.53648
      vertex 14 33.1183 4.21353
    endloop
  endfacet
  facet normal 6.86156e-17 0.951056 -0.309017
    outer loop
      vertex 14 33.1183 4.21353
      vertex 20 32.5734 2.53648
      vertex 14 32.5734 2.53648
    endloop
  endfacet
  facet normal -1.79638e-16 0.587785 0.809017
    outer loop
      vertex 20 32.5734 2.53648
      vertex 20 34 1.5
      vertex 14 34 1.5
    endloop
  endfacet
  facet normal -1.79638e-16 0.587785 0.809017
    outer loop
      vertex 14 32.5734 2.53648
      vertex 20 32.5734 2.53648
      vertex 14 34 1.5
    endloop
  endfacet
  facet normal 2.22045e-16 0 -1
    outer loop
      vertex 20 34.8817 4.21353
      vertex 20 33.1183 4.21353
      vertex 14 34.8817 4.21353
    endloop
  endfacet
  facet normal 2.22045e-16 0 -1
    outer loop
      vertex 14 34.8817 4.21353
      vertex 20 33.1183 4.21353
      vertex 14 33.1183 4.21353
    endloop
  endfacet
  facet normal 6.86156e-17 -0.951056 -0.309017
    outer loop
      vertex 14 35.4266 2.53648
      vertex 20 35.4266 2.53648
      vertex 20 34.8817 4.21353
    endloop
  endfacet
  facet normal 6.86156e-17 -0.951056 -0.309017
    outer loop
      vertex 14 34.8817 4.21353
      vertex 14 35.4266 2.53648
      vertex 20 34.8817 4.21353
    endloop
  endfacet
  facet normal -1.79638e-16 -0.587785 0.809017
    outer loop
      vertex 20 34 1.5
      vertex 20 35.4266 2.53648
      vertex 14 35.4266 2.53648
    endloop
  endfacet
  facet normal -1.79638e-16 -0.587785 0.809017
    outer loop
      vertex 14 34 1.5
      vertex 20 34 1.5
      vertex 14 35.4266 2.53648
    endloop
  endfacet
  facet normal 1 0 0
    outer loop
      vertex 16.7865 0.881678 0
      vertex 16.7865 0.881678 7
      vertex 16.7865 -0.881678 7
    endloop
  endfacet
  facet normal 1 0 0
    outer loop
      vertex 16.7865 -0.881678 0
      vertex 16.7865 0.881678 0
      vertex 16.7865 -0.881678 7
    endloop
  endfacet
  facet normal 0.309017 0.951056 0
    outer loop
      vertex 18.4635 -1.42658 7
      vertex 18.4635 -1.42658 0
      vertex 16.7865 -0.881678 7
    endloop
  endfacet
  facet normal 0.309017 0.951056 0
    outer loop
      vertex 16.7865 -0.881678 7
      vertex 18.4635 -1.42658 0
      vertex 16.7865 -0.881678 0
    endloop
  endfacet
  facet normal -0.809017 0.587785 0
    outer loop
      vertex 19.5 0 7
      vertex 19.5 0 0
      vertex 18.4635 -1.42658 7
    endloop
  endfacet
  facet normal -0.809017 0.587785 0
    outer loop
      vertex 18.4635 -1.42658 7
      vertex 19.5 0 0
      vertex 18.4635 -1.42658 0
    endloop
  endfacet
  facet normal -0.809017 -0.587785 0
    outer loop
      vertex 19.5 0 7
      vertex 18.4635 1.42658 7
      vertex 19.5 0 0
    endloop
  endfacet
  facet normal -0.809017 -0.587785 0
    outer loop
      vertex 19.5 0 0
      vertex 18.4635 1.42658 7
      vertex 18.4635 1.42658 0
    endloop
  endfacet
  facet normal 0.309017 -0.951056 0
    outer loop
      vertex 18.4635 1.42658 0
      vertex 18.4635 1.42658 7
      vertex 16.7865 0.881678 7
    endloop
  endfacet
  facet normal 0.309017 -0.951056 0
    outer loop
      vertex 16.7865 0.881678 0
      vertex 18.4635 1.42658 0
      vertex 16.7865 0.881678 7
    endloop
  endfacet
  facet normal 1 0 0
    outer loop
      vertex 36.7865 0.881678 0
      vertex 36.7865 0.881678 7
      vertex 36.7865 -0.881678 7
    endloop
  endfacet
  facet normal 1 0 0
    outer loop
      vertex 36.7865 -0.881678 0
      vertex 36.7865 0.881678 0
      vertex 36.7865 -0.881678 7
    endloop
  endfacet
  facet normal 0.309017 0.951056 0
    outer loop
      vertex 38.4635 -1.42658 7
      vertex 38.4635 -1.42658 0
      vertex 36.7865 -0.881678 7
    endloop
  endfacet
  facet normal 0.309017 0.951056 0
    outer loop
      vertex 36.7865 -0.881678 7
      vertex 38.4635 -1.42658 0
      vertex 36.7865 -0.881678 0
    endloop
  endfacet
  facet normal -0.809017 0.587785 0
    outer loop
      vertex 39.5 0 7
      vertex 39.5 0 0
      vertex 38.4635 -1.42658 7
    endloop
  endfacet
  facet normal -0.809017 0.587785 0
    outer loop
      vertex 38.4635 -1.42658 7
      vertex 39.5 0 0
      vertex 38.4635 -1.42658 0
    endloop
  endfacet
  facet normal -0.809017 -0.587785 0
    outer loop
      vertex 39.5 0 7
      vertex 38.4635 1.42658 7
      vertex 39.5 0 0
    endloop
  endfacet
  facet normal -0.809017 -0.587785 0
    outer loop
      vertex 39.5 0 0
      vertex 38.4635 1.42658 7
      vertex 38.4635 1.42658 0
    endloop
  endfacet
  facet normal 0.309017 -0.951056 0
    outer loop
      vertex 38.4635 1.42658 0
      vertex 38.4635 1.42658 7
      vertex 36.7865 0.881678 7
    endloop
  endfacet
  facet normal 0.309017 -0.951056 0
    outer loop
      vertex 36.7865 0.881678 0
      vertex 38.4635 1.42658 0
      vertex 36.7865 0.881678 7
    endloop
  endfacet
  facet normal 1 0 2.22045e-16
    outer loop
      vertex 20 2.73664 5.42705
      vertex 20 1.64683 3.92705
      vertex 20 1.64683 2.07295
    endloop
  endfacet
  facet normal 1 0 2.22045e-16
    outer loop
      vertex 20 3.07341 2.53648
      vertex 20 2.73664 5.42705
      vertex 20 2.73664 0.572949
    endloop
  endfacet
  facet normal 1 0 2.22045e-16
    outer loop
      vertex 20 2.73664 0.572949
      vertex 20 2.73664 5.42705
      vertex 20 1.64683 2.07295
    endloop
  endfacet
  facet normal 1 0 2.22045e-16
    outer loop
      vertex 20 3.07341 2.53648
      vertex 20 3.61832 4.21353
      vertex 20 2.73664 5.42705
    endloop
  endfacet
  facet normal 1 0 2.22045e-16
    outer loop
      vertex 20 5.92658 2.53648
      vertex 20 4.5 1.5
      vertex 20 6.26336 0.572949
    endloop
  endfacet
  facet normal 1 0 2.22045e-16
    outer loop
      vertex 20 6.26336 5.42705
      vertex 20 2.73664 5.42705
      vertex 20 7.35317 3.92705
    endloop
  endfacet
  facet normal 1 0 2.22045e-16
    outer loop
      vertex 20 4.5 6
      vertex 20 2.73664 5.42705
      vertex 20 6.26336 5.42705
    endloop
  endfacet
  facet normal 1 0 2.22045e-16
    outer loop
      vertex 20 7.35317 3.92705
      vertex 20 5.38168 4.21353
      vertex 20 7.35317 2.07295
    endloop
  endfacet
  facet normal 1 0 2.22045e-16
    outer loop
      vertex 20 7.35317 3.92705
      vertex 20 2.73664 5.42705
      vertex 20 5.38168 4.21353
    endloop
  endfacet
  facet normal 1 0 2.22045e-16
    outer loop
      vertex 20 7.35317 2.07295
      vertex 20 5.92658 2.53648
      vertex 20 6.26336 0.572949
    endloop
  endfacet
  facet normal 1 0 2.22045e-16
    outer loop
      vertex 20 6.26336 0.572949
      vertex 20 4.5 1.5
      vertex 20 4.5 0
    endloop
  endfacet
  facet normal 1 0 2.22045e-16
    outer loop
      vertex 20 4.5 0
      vertex 20 3.07341 2.53648
      vertex 20 2.73664 0.572949
    endloop
  endfacet
  facet normal 1 0 2.22045e-16
    outer loop
      vertex 20 5.38168 4.21353
      vertex 20 5.92658 2.53648
      vertex 20 7.35317 2.07295
    endloop
  endfacet
  facet normal 1 0 2.22045e-16
    outer loop
      vertex 20 4.5 1.5
      vertex 20 3.07341 2.53648
      vertex 20 4.5 0
    endloop
  endfacet
  facet normal 1 0 2.22045e-16
    outer loop
      vertex 20 3.61832 4.21353
      vertex 20 5.38168 4.21353
      vertex 20 2.73664 5.42705
    endloop
  endfacet
  facet normal 1 0 2.22045e-16
    outer loop
      vertex 20 32.2366 5.42705
      vertex 20 31.1468 3.92705
      vertex 20 31.1468 2.07295
    endloop
  endfacet
  facet normal 1 0 2.22045e-16
    outer loop
      vertex 20 32.5734 2.53648
      vertex 20 32.2366 5.42705
      vertex 20 32.2366 0.572949
    endloop
  endfacet
  facet normal 1 0 2.22045e-16
    outer loop
      vertex 20 32.2366 0.572949
      vertex 20 32.2366 5.42705
      vertex 20 31.1468 2.07295
    endloop
  endfacet
  facet normal 1 0 2.22045e-16
    outer loop
      vertex 20 32.5734 2.53648
      vertex 20 33.1183 4.21353
      vertex 20 32.2366 5.42705
    endloop
  endfacet
  facet normal 1 0 2.22045e-16
    outer loop
      vertex 20 35.4266 2.53648
      vertex 20 34 1.5
      vertex 20 35.7634 0.572949
    endloop
  endfacet
  facet normal 1 0 2.22045e-16
    outer loop
      vertex 20 35.7634 5.42705
      vertex 20 32.2366 5.42705
      vertex 20 36.8532 3.92705
    endloop
  endfacet
  facet normal 1 0 2.22045e-16
    outer loop
      vertex 20 34 6
      vertex 20 32.2366 5.42705
      vertex 20 35.7634 5.42705
    endloop
  endfacet
  facet normal 1 0 2.22045e-16
    outer loop
      vertex 20 36.8532 3.92705
      vertex 20 34.8817 4.21353
      vertex 20 36.8532 2.07295
    endloop
  endfacet
  facet normal 1 0 2.22045e-16
    outer loop
      vertex 20 36.8532 3.92705
      vertex 20 32.2366 5.42705
      vertex 20 34.8817 4.21353
    endloop
  endfacet
  facet normal 1 0 2.22045e-16
    outer loop
      vertex 20 36.8532 2.07295
      vertex 20 35.4266 2.53648
      vertex 20 35.7634 0.572949
    endloop
  endfacet
  facet normal 1 0 2.22045e-16
    outer loop
      vertex 20 35.7634 0.572949
      vertex 20 34 1.5
      vertex 20 34 0
    endloop
  endfacet
  facet normal 1 0 2.22045e-16
    outer loop
      vertex 20 34 0
      vertex 20 32.5734 2.53648
      vertex 20 32.2366 0.572949
    endloop
  endfacet
  facet normal 1 0 2.22045e-16
    outer loop
      vertex 20 34.8817 4.21353
      vertex 20 35.4266 2.53648
      vertex 20 36.8532 2.07295
    endloop
  endfacet
  facet normal 1 0 2.22045e-16
    outer loop
      vertex 20 34 1.5
      vertex 20 32.5734 2.53648
      vertex 20 34 0
    endloop
  endfacet
  facet normal 1 0 2.22045e-16
    outer loop
      vertex 20 33.1183 4.21353
      vertex 20 34.8817 4.21353
      vertex 20 32.2366 5.42705
    endloop
  endfacet
  facet normal 0 0 1
    outer loop
      vertex 18.4635 -1.42658 0
      vertex 19.5 0 0
      vertex 18.4635 1.42658 0
    endloop
  endfacet
  facet normal 0 0 1
    outer loop
      vertex 16.7865 -0.881678 0
      vertex 18.4635 -1.42658 0
      vertex 16.7865 0.881678 0
    endloop
  endfacet
  facet normal 0 0 1
    outer loop
      vertex 16.7865 0.881678 0
      vertex 18.4635 -1.42658 0
      vertex 18.4635 1.42658 0
    endloop
  endfacet
  facet normal 0 0 1
    outer loop
      vertex 38.4635 -1.42658 0
      vertex 39.5 0 0
      vertex 38.4635 1.42658 0
    endloop
  endfacet
  facet normal 0 0 1
    outer loop
      vertex 36.7865 -0.881678 0
      vertex 38.4635 -1.42658 0
      vertex 36.7865 0.881678 0
    endloop
  endfacet
  facet normal 0 0 1
    outer loop
      vertex 36.7865 0.881678 0
      vertex 38.4635 -1.42658 0
      vertex 38.4635 1.42658 0
    endloop
  endfacet
endsolid OpenSCAD_Model
